<?xml version="1.0" encoding="UTF-8"?><svg id="a" xmlns="http://www.w3.org/2000/svg" xmlns:xlink="http://www.w3.org/1999/xlink" viewBox="0 0 595.28 841.89"><defs><style>.c{fill:#183c67;}.d{fill:url(#b);}.e{fill:#a89bcb;font-family:MaiandraGD-Regular, Maiandra GD;font-size:60px;}</style><linearGradient id="b" x1="102.69" y1="364.54" x2="638.61" y2="518.09" gradientTransform="matrix(1, 0, 0, 1, 0, 0)" gradientUnits="userSpaceOnUse"><stop offset="0" stop-color="#1b1e3d"/><stop offset=".24" stop-color="#143b67"/><stop offset=".42" stop-color="#a69bcb"/><stop offset=".53" stop-color="#fff"/><stop offset=".65" stop-color="#a69bcb"/><stop offset=".82" stop-color="#143b67"/><stop offset=".99" stop-color="#1b1e3d"/></linearGradient></defs><path class="d" d="M529.29,420.5c0-65.24-30.25-123.8-78.21-163.85-39.43-40.64-93.47-65.7-153.08-65.7s-113.65,25.06-153.08,65.7c-47.96,40.05-78.21,98.61-78.21,163.85s30.25,123.8,78.21,163.85c39.43,40.64,93.47,65.7,153.08,65.7s113.65-25.06,153.08-65.7c47.96-40.05,78.21-98.61,78.21-163.85Zm-81.3,160.54c-39.96,33.37-92.47,53.62-149.99,53.62s-110.03-20.25-149.99-53.62c-39.61-40.82-64.18-97.67-64.18-160.54s24.57-119.73,64.18-160.54c39.96-33.37,92.47-53.62,149.99-53.62s110.03,20.25,149.99,53.62c39.6,40.82,64.17,97.67,64.17,160.54s-24.57,119.73-64.18,160.54ZM298,195.58c42.61,0,82.32,13.07,115.68,35.6-34.03-18.61-73.54-29.27-115.68-29.27s-81.65,10.65-115.68,29.27c33.36-22.53,73.07-35.6,115.68-35.6ZM71.38,420.5c0-48.69,17.19-93.57,46.15-129.55-24.04,36.87-38.11,81.48-38.11,129.55s14.07,92.67,38.11,129.55c-28.96-35.97-46.15-80.86-46.15-129.55Zm226.62,224.92c-42.61,0-82.32-13.07-115.68-35.6,34.03,18.61,73.54,29.27,115.68,29.27s81.65-10.65,115.68-29.27c-33.36,22.53-73.07,35.6-115.68,35.6Zm218.58-224.92c0-48.06-14.07-92.67-38.11-129.55,28.96,35.97,46.15,80.86,46.15,129.55s-17.19,93.57-46.15,129.55c24.04-36.87,38.11-81.48,38.11-129.55Z"/><path class="c" d="M198.17,370.71l176.54,170.43v14.2h-3.06l-138.84-133.54v80.54c0,17.55,1.99,29.73,5.98,36.55,3.98,6.81,10.27,11.26,18.85,13.34v3.12c-15.43-1.39-25.9-2.08-31.41-2.08-6.23,0-15.63,.69-28.2,2.08v-3.12c8.79-2.31,14.76-6.98,17.93-14.03,3.17-7.04,4.75-19.51,4.75-37.41l-.15-90.41-11.03-10.56c-15.32-14.78-28.25-24.13-38.77-28.06v-3.12l27.43,2.08Zm206.54,96.46l-159.22-153.46h18.08l128.88,124.01v-71.88c0-12.01-.72-21.24-2.15-27.71-1.43-6.12-4.34-11.26-8.73-15.41-4.39-4.04-10.01-6.7-16.86-7.97v-3.12c.1,0,1.89,.17,5.36,.52,13.38,1.04,22.47,1.56,27.28,1.56,4.39,0,14.86-.69,31.42-2.08v3.12c-5.31,.81-9.96,3.29-13.95,7.45-3.88,3.93-6.54,8.78-7.97,14.55-1.43,5.89-2.15,14.15-2.15,24.77v105.65Z"/><text class="e" transform="translate(183.41 334.21) rotate(43.33)"><tspan x="0" y="0">Nour Shop</tspan></text></svg>