<svg xmlns="http://www.w3.org/2000/svg" xmlns:xlink="http://www.w3.org/1999/xlink" width="196" height="196" viewBox="0 0 196 196">
  <defs>
    <clipPath id="clip-path">
      <circle id="Ellipse_1" data-name="Ellipse 1" cx="98" cy="98" r="98" transform="translate(0 -0.276)" fill="#fff" stroke="#707070" stroke-width="1"/>
    </clipPath>
    <linearGradient id="linear-gradient" x1="0.078" y1="0.378" x2="1.236" y2="0.713" gradientUnits="objectBoundingBox">
      <stop offset="0" stop-color="#1b1e3d"/>
      <stop offset="0.24" stop-color="#143b67"/>
      <stop offset="0.42" stop-color="#a69bcb"/>
      <stop offset="0.53" stop-color="#fff"/>
      <stop offset="0.65" stop-color="#a69bcb"/>
      <stop offset="0.82" stop-color="#143b67"/>
      <stop offset="0.99" stop-color="#1b1e3d"/>
    </linearGradient>
  </defs>
  <g id="logo" transform="translate(0 0.276)" clip-path="url(#clip-path)">
    <g id="logoNs" transform="translate(0 0.485)">
      <path id="Tracé_10" data-name="Tracé 10" d="M229.363,193.666c0-27.589-12.792-52.353-33.074-69.289a89.307,89.307,0,0,0-129.47,0c-20.281,16.936-33.074,41.7-33.074,69.289s12.792,52.353,33.074,69.289a89.307,89.307,0,0,0,129.47,0c20.281-16.936,33.074-41.7,33.074-69.289Zm-34.38,67.89a100.051,100.051,0,0,1-126.856,0,98.48,98.48,0,0,1,0-135.779,100.051,100.051,0,0,1,126.856,0,98.485,98.485,0,0,1,0,135.779Zm-63.428-163a87.047,87.047,0,0,1,48.919,15.055,102.857,102.857,0,0,0-97.838,0,87.047,87.047,0,0,1,48.919-15.055ZM35.721,193.666a87,87,0,0,1,19.516-54.784,101.174,101.174,0,0,0,0,109.569A86.992,86.992,0,0,1,35.721,193.666Zm95.834,95.115a87.047,87.047,0,0,1-48.919-15.055,102.857,102.857,0,0,0,97.838,0A87.047,87.047,0,0,1,131.554,288.781Zm92.434-95.115a100.078,100.078,0,0,0-16.116-54.784,86.652,86.652,0,0,1,0,109.569,100.056,100.056,0,0,0,16.116-54.784Z" transform="translate(-33.746 -96.594)" fill="url(#linear-gradient)"/>
      <path id="Tracé_11" data-name="Tracé 11" d="M97.972,182.625,172.627,254.7v6h-1.294L112.62,204.23v34.059q0,11.132,2.529,15.456a12.038,12.038,0,0,0,7.971,5.641v1.319q-9.788-.882-13.283-.88a119.046,119.046,0,0,0-11.925.88v-1.319q5.576-1.465,7.582-5.933t2.009-15.82L107.44,199.4l-4.664-4.466q-9.718-9.375-16.4-11.866v-1.319l11.6.88Zm87.342,40.791-67.331-64.9h7.646l54.5,52.442v-30.4a57.623,57.623,0,0,0-.909-11.718,12.747,12.747,0,0,0-3.692-6.517,14.046,14.046,0,0,0-7.13-3.37v-1.319c.042,0,.8.072,2.267.22q8.487.66,11.536.66,2.785,0,13.287-.88v1.319a10.137,10.137,0,0,0-5.9,3.15,13.028,13.028,0,0,0-3.37,6.153,46.762,46.762,0,0,0-.909,10.475v44.678Z" transform="translate(-42.379 -106.607)" fill="#183c67"/>
      <text id="Nour_Shop" data-name="Nour Shop" transform="translate(49.517 60.405) rotate(43.33)" fill="#fdfbf4" font-size="25" font-family="MaiandraGD-Regular, Maiandra GD"><tspan x="0" y="0">Nour Shop</tspan></text>
    </g>
  </g>
</svg>
